<!-- Logo HONOR; nguồn: https://cdn.simpleicons.org/honor?viewbox=auto. -->
<!-- Dùng biểu tượng thương hiệu để nhận diện hãng trong cửa hàng. -->
<svg fill="#000000" role="img" viewBox="0 0 125 24" xmlns="http://www.w3.org/2000/svg">
<title>Honor</title>
<path d="M13.629 0.317v9.479H4.301V0.317H0.105v23.388h4.196v-9.744h9.328v9.744h4.196V0.317h-4.196Zm97.082 4.165h4.669c1.919 0 3.468 1.544 3.468 3.442a3.458 3.458 0 0 1-3.468 3.448h-4.669v-6.89Zm-4.191-4.165v23.388h4.191v-10.41l8.735 10.41H124.895l-7.154-8.527a7.602 7.602 0 0 0-2.309-14.861h-8.922 0.01Zm-39.673-0.073v14.596l-10.186-14.596h-3.349v23.388h4.196v-14.663l10.233 14.663h3.292V0.244h-4.186Zm-39.164 11.752c0-4.326 3.536-7.831 7.888-7.831A7.851 7.851 0 0 1 43.454 12.001c0 4.326-3.531 7.831-7.883 7.83-2.095 0-4.103-0.827-5.579-2.293A7.82 7.82 0 0 1 27.683 12.001v-0.005ZM23.487 12.001c0 4.851 2.943 9.224 7.457 11.085 4.518 1.856 9.713 0.832 13.17-2.599 3.453-3.432 4.487-8.595 2.616-13.077a12.084 12.084 0 0 0-11.159-7.41 12.042 12.042 0 0 0-12.079 11.996L23.487 12.001Zm57.404-0.005a7.867 7.867 0 0 1 7.893-7.831c4.357 0 7.883 3.51 7.883 7.836a7.867 7.867 0 0 1-7.893 7.83c-2.09 0-4.097-0.827-5.574-2.293a7.799 7.799 0 0 1-2.309-5.542ZM76.695 12.001c0 4.851 2.943 9.224 7.456 11.085 4.513 1.856 9.713 0.832 13.166-2.599 3.458-3.432 4.492-8.595 2.62-13.077a12.089 12.089 0 0 0-11.163-7.41 12.042 12.042 0 0 0-12.079 11.996V12.001Z"/>
</svg>
